/* XPM */
static char *d9dc752351ec48e4a8f6caeb4cd70eecIY6OKL9KF07CEF6i[] = {
/* columns rows colors chars-per-pixel */
"46 51 65 1 ",
"  c #28282C",
". c #35353A",
"X c #1D693D",
"o c #20743E",
"O c #6B453B",
"+ c #6E4F39",
"@ c #734C3D",
"# c #7A523E",
"$ c #7F563F",
"% c #303645",
"& c #3C3C42",
"* c #7D3946",
"= c #1E5541",
"- c #205E43",
"; c #3A4354",
": c #47464C",
"> c #545359",
", c #664254",
"< c #424F61",
"1 c #6E5965",
"2 c #7F5161",
"3 c #666670",
"4 c #873131",
"5 c #883C3F",
"6 c #8F3D3C",
"7 c #973535",
"8 c #A73B3B",
"9 c #94433D",
"0 c #96463D",
"q c #9A4B3D",
"w c #9C4E3D",
"e c #A36939",
"r c #BA793D",
"t c #843A42",
"y c #843C49",
"u c #8A3E4C",
"i c #923F4A",
"p c #825940",
"a c #895E42",
"s c #B54141",
"d c #8F6345",
"f c #8B6C48",
"g c #997045",
"h c #966350",
"j c #A87053",
"k c #945C6B",
"l c #C74646",
"z c #F55044",
"x c #F5655B",
"c c #A18152",
"v c #A3847E",
"b c #C98F59",
"n c #FFAE45",
"m c #F5A249",
"M c #FFB658",
"N c #D49D6E",
"B c #787882",
"V c #8F6F80",
"C c #93939E",
"Z c #B8948C",
"A c #D1A792",
"S c #DBAB93",
"D c #EBBF9B",
"F c #FFCB87",
"G c white",
/* pixels */
"GGGGGGGGGGGGGGGGGGGGG####GGGGGGGGGGGGGGGGGGGGG",
"GGGGGGGGGGGGGGGGG***#dddd#***GGGGGGGGGGGGGGGGG",
"GGGGGGGGGGGGGGG**uuy#dV1d#yuu**GGGGGGGGGGGGGGG",
"GGGGGGGGGGGGG**iuuuy#d11d#yuuui**GGGGGGGGGGGGG",
"GGGGGGGGGGG**5*iuuuy#dddd#yuuui*0**GGGGGGGGGGG",
"GGGGGGGGG**965*iuuuy#dddd#yuuui*000**GGGGGGGGG",
"GGGGGGG**0t965*iu***#dddd#***ui*000q***GGGGGGG",
"GGGGG**000t9655**665#dddd#566**0000q*56*GGGGGG",
"GGG**tq000t96t*96665#dddd#56669t000q*569t**GGG",
"GG*65tq0000tt0t96665#dddd#56669ttt0w*569tyu*GG",
"G*665tq00ttq00t96665#dV1d#56669t00tt5569tyuu*G",
"G*6655tttytq00t96ttt#d11d#ttt69t000qtt69tyuu*G",
"G*665*iuuytq000tt000#dddd#000tt0000qt0ttyyuu*G",
"G*6***iuuytq00tq0000#gggg#0000qt**0qt00q***u*G",
"G**00*iuuytq0ttq880077$$770000qtyu**000qt56**G",
"*w000*iuuyyttyt8zl87xx88xz7==088yuui*00qt5669*",
"*w000*iu***iuyt8ll87xszzsz7oo8zl8uui*t0qt5669*",
"*w0000**65*i==t=88o7zzllzz7o-8ll8=ui*5tt55669*",
"*w0ttt9665*=o88XXXrr4l44l4rrXX88oo=i*569ttt69*",
"Gtt65t9665=-8zl8-rFn4l44l4mmr-XX88-=5588t00ttG",
"*9665t9688oX8llrrnnn44DD44nmmrr8zl8o=8zl8000w*",
"*96655=8zl8-o8rMmnnmmeDDrnnnmmMrll8XX8ll8000w*",
"*96===X8ll8==DrMmmmmeDDDDrnmmmMr88=oXX88===0w*",
"Gt=ooXX-88=####rMmme######rmmMr####=-o-oXoo=tG",
"GO=-o88-o=ddddddrMMeadddddrMMraddddd=o-=X88=OG",
"GO=o8zl8=ddddddddrradddddddrraddddddd==d8zl8OG",
"GO#=8ll8OOOOOOOOOOOOOOOOOOOOOOOOOOOOOOOO8ll8OG",
"GO##O88ZZZZZZZZZZZZZZZZZZZZZZZZZZZZZZZZZZ88#OG",
"GO#pOZZ::::ZZZZZ::::ZZZZZ::::ZZZZZ::::ZZZO##OG",
"GOppOv:3333:vvv:3333:vvv:3333:vvv:3333:vvOp#OG",
"GOpdO:33CB33:A:33CB33:A:33CB33:A:33CB33:ZOppOG",
"GOpdO:>>BB>>:A:>>BB>>:A:>>BB>>:A:>>BB>>:ZOdpOG",
"GOpdO .>>B>. Z%;>>B>;%Z,2>>B>2,Z+f>>B>f+vOdpOG",
"GOpdO &....& A%<;;;;<%A,k2222k,A+cffffc+ZOdpOG",
"GOpdO &DDDD& h%<DDDD<%h,kDDDDk,h+cDDDDc+hOdpOG",
"GOppO &DDDD& b%<DDDD<%b,kDDDDk,b+cDDDDc+bOppOG",
"GOpdOb......bbb;;;;;;bbb222222bbbffffffbbOdpOG",
"GOppObbbbbbbbbbbbbbbbbbbbbbbbbbbbbbbbbbbbOdpOG",
"GOpppONNNNNNNNNNNNNNNNNNNNNNNNNNNNNNNNNNOpppOG",
"GGOppOhhhhhhhhhhhhhhhhhhhhhhhhhhhhhhhhhhOppOGG",
"GGOppOjjjjjjjjjjjjjjjjjjjjjjjjjjjjjjjjjjOppOGG",
"GGOppO##################################OppOGG",
"GG#dddddddddddddddddddddddddddddddddddddddd#GG",
"GG#dddddddddddddddddddddddddddddddddddddddd#GG",
"GG#dddddddddddddddddddddddddddddddddddddddd#GG",
"GG#gggggggggggggggggggggggggggggggggggggggg#GG",
"GGGOOOOOOOOOOOOOOOOOOOOOOOOOOOOOOOOOOOOOOOOGGG",
"GGGGO##OSSSSSSSSSSSSSO##OSSSSSSSSSSSSSO##OGGGG",
"GGGGOpp@DDDDDDDDDDDDD@pp@SDDDDDDDDDDDD@ppOGGGG",
"GGGGOpp@@@@@@@@@@@@@@@pp@@@@@@@@@@@@@@@ppOGGGG",
"GGGGOppppppppppppppppppppppppppppppppppppOGGGG"
};
