/* XPM */
static char *_761fa211bbf40f5ae870a56f0180fd94gIWUuYrpMhMTaIr[] = {
/* columns rows colors chars-per-pixel */
"15 25 19 1 ",
"  c #524949",
". c #665C5C",
"X c #604869",
"o c #78507D",
"O c #A1562B",
"+ c #AD5C2D",
"@ c #BF6E2C",
"# c #CF7D25",
"$ c #B3836F",
"% c #8F5A8C",
"& c #AD66A3",
"* c #8A9EA6",
"= c #94AEB5",
"- c #DCA884",
"; c #F1BC8F",
": c #FACF8E",
"> c #ADD3D5",
", c #CFFFFB",
"< c white",
/* pixels */
"<<<<<<$$$<<<<<<",
"<<<<<$:;-$<<<<<",
"<<<<<$;--$<<<<<",
"<<<<X&$$$&X<<<<",
"<<<X&&%&%&&X<<<",
"<<X&%&%&%&%&X<<",
"<<X&o%o%o%o&X<<",
"<<X%o%o%o%o%X<<",
"<XXXXXXXXXXXXX<",
"<X&%&%&%&%&%&X<",
"<X%o%o%o%o%o%X<",
"<*XXXXXXXXXXX*<",
"<*>,. ,,,. ,>*<",
"<*>,  ,,,  ,>*<",
"<<*>,,O@O,,>*<<",
"<<*=>>+#+>>=*<<",
"<*,>==++>==>>*<",
"*,,,>>===>>>>>*",
"*,,,,>  >>,,>>*",
"*,,,,,  ,,,,,>*",
"*>,,,,>>,,,,,>*",
"*>,,,,,,,,,,>>*",
"<*>>,,  ,,,>>*<",
"<<*>>>  >>>>*<<",
"<<<**>>>>>**<<<"
};
