/* XPM */
static char *_b8810b565f64a17decbadc40308bb74ibWzw4VfhMPxeo8i[] = {
/* columns rows colors chars-per-pixel */
"12 15 15 1 ",
"  c #4B3C36",
". c #52423A",
"X c #59483E",
"o c #695144",
"O c #70685C",
"+ c #4C7C6B",
"@ c #819DA0",
"# c #8A9EA6",
"$ c #A1B7BF",
"% c #A3C6C9",
"& c #A5C9CC",
"* c #CFFFFB",
"= c #E7FFFD",
"- c #F5FFFE",
"; c white",
/* pixels */
";;;;%%%%;;;;",
";;%%----%%;;",
";%-=-*----%;",
";%---++---%;",
"%==-++++---%",
"%==-++++-*-%",
"%-*+++*++--%",
"@--++++++--@",
";@***OO***@;",
"; ******** ;",
"; ..&&&&.. ;",
" XXX....XXX ",
" ooX$$#$Xoo ",
";  o####o  ;",
";;;      ;;;"
};
