/* XPM */
static char *fb606b1a09aa4e568017bbc81b64a6adiuMFO7PcpYQuh49r[] = {
/* columns rows colors chars-per-pixel */
"16 16 14 1 ",
"  c #AB5D3C",
". c #528559",
"X c #659158",
"o c #799C57",
"O c #C78E5D",
"+ c #D59D5B",
"@ c #F58E49",
"# c #F5BD59",
"$ c #F5A56C",
"% c #F5B361",
"& c #F5C056",
"* c #FAD059",
"= c #FFE15C",
"- c white",
/* pixels */
"-----+----------",
"----+*+---------",
"-+++*&&+++------",
"+#%%@@&%%#+-----",
"-O$%@ @%$O------",
"--O=&@@&O-------",
"--O==O=*O-+-----",
"--O=OXO=O+*+----",
"---O.X+++*&&+++-",
"----.+#%%&@@%%#+",
"----.oO$%@ @%$O-",
"----.o.O&@@&&O--",
"-------O*=O=*O--",
"-------O=OXO=O--",
"--------O.X.O---",
"---------.o.----"
};
