/* XPM */
static char *f6c1dd6efaed468cf0714c873fbfed05PBbwtGdOBPLZToeq[] = {
/* columns rows colors chars-per-pixel */
"41 66 194 2 ",
"   c #3C2D2E",
".  c #2B342B",
"X  c #283929",
"o  c #30352F",
"O  c #3B322C",
"+  c #3D2C33",
"@  c #3D2E39",
"#  c #3F3035",
"$  c #323931",
"%  c #412726",
"&  c #46272D",
"*  c #4D242B",
"=  c #452A2C",
"-  c #4D2929",
";  c #51282B",
":  c #512429",
">  c #422A35",
",  c #422D38",
"<  c #482834",
"1  c #5D3B34",
"2  c #5C3A3C",
"3  c #563E3C",
"4  c #67362F",
"5  c #663B2F",
"6  c #653A35",
"7  c #693832",
"8  c #653739",
"9  c #643A3B",
"0  c #6A3A38",
"q  c #3F7736",
"w  c #3C753E",
"e  c #3F793C",
"r  c #4B4338",
"t  c #5A423B",
"y  c #55433F",
"u  c #62403F",
"i  c #416F3E",
"p  c #41763E",
"a  c #5D3C44",
"s  c #5C3C4B",
"d  c #633C43",
"f  c #3D6E4B",
"g  c #367545",
"h  c #3B7545",
"j  c #367946",
"k  c #36754B",
"l  c #3B744C",
"z  c #36794B",
"x  c #3C794D",
"c  c #3D7945",
"v  c #3E6F51",
"b  c #3D7550",
"n  c #3D7950",
"m  c #4C4240",
"M  c #534345",
"N  c #584342",
"B  c #476647",
"V  c #466B44",
"C  c #4B6F45",
"Z  c #4A674C",
"A  c #436C4D",
"S  c #496B4C",
"D  c #43724E",
"F  c #4A714D",
"G  c #487245",
"H  c #527249",
"J  c #476752",
"K  c #4C6653",
"L  c #456D52",
"P  c #4B6B54",
"I  c #4D6B58",
"U  c #526354",
"Y  c #506A54",
"T  c #5D6857",
"R  c #57675D",
"E  c #526B58",
"W  c #447352",
"Q  c #497155",
"!  c #417A51",
"~  c #59953F",
"^  c #528F4E",
"/  c #539246",
"(  c #599343",
")  c #54924D",
"_  c #4D8F52",
"`  c #478F5D",
"'  c #4E8E5D",
"]  c #548E54",
"[  c #5A8E55",
"{  c #538E5C",
"}  c #5A8D5C",
"|  c #4E9254",
" . c #4D925C",
".. c #549254",
"X. c #599355",
"o. c #52925C",
"O. c #5A925C",
"+. c #74AE5E",
"@. c #78AF5D",
"#. c #71B057",
"$. c #75B15D",
"%. c #79B25E",
"&. c #4D8E62",
"*. c #538E64",
"=. c #5A8B64",
"-. c #558F68",
";. c #5C8C6B",
":. c #4E9263",
">. c #529264",
",. c #599362",
"<. c #519860",
"1. c #539368",
"2. c #58926A",
"3. c #6FAC65",
"4. c #6DAC6A",
"5. c #77A662",
"6. c #73AE64",
"7. c #78AE64",
"8. c #74AE6B",
"9. c #7AAD6C",
"0. c #6EB16C",
"q. c #73B164",
"w. c #7AB162",
"e. c #73B16A",
"r. c #79B16A",
"t. c #6DAE74",
"y. c #6CAE7D",
"u. c #73AD72",
"i. c #7AAC74",
"p. c #75AC79",
"a. c #6EB173",
"s. c #6DB07A",
"d. c #72B173",
"f. c #78B073",
"g. c #71B079",
"h. c #AFAFAF",
"j. c #B4AEAD",
"k. c #BAADAE",
"l. c #B1B1AE",
"z. c #BAB0AF",
"x. c #B5AFB3",
"c. c #BBACB1",
"v. c #B3B3B2",
"b. c #B8B4B6",
"n. c #B7B2B8",
"m. c #C2ACAB",
"M. c #E5FFEF",
"N. c #ECFEED",
"B. c #F1FFEC",
"V. c #EDFFF4",
"C. c #EFFFF9",
"Z. c #F7FFF7",
"A. c #F5FFF4",
"S. c #F3FFF5",
"D. c #F9FBF6",
"F. c #FDF6FC",
"G. c #F3FFF9",
"H. c #F0FFF8",
"J. c #F5FFF8",
"K. c #F6FFFA",
"L. c #F5FFFA",
"P. c #FBFBFB",
"I. c #FAFAFA",
"U. c #F9FFF9",
"Y. c #F9FEFA",
"T. c #FAFFFB",
"R. c #FBFEFA",
"E. c #FCFCFA",
"W. c #FEFDFB",
"Q. c #FFFFFB",
"!. c #FDFEF9",
"~. c #FEFBFF",
"^. c #F9FFFD",
"/. c #FBFFFC",
"(. c #FBFFFE",
"). c #FBFDFD",
"_. c #FDFDFD",
"`. c gray99",
"'. c #FFFCFD",
"]. c #FEFEFC",
"[. c #FFFFFD",
"{. c #FEFFFD",
"}. c #FFFDFE",
"|. c #FFFDFF",
" X c #FEFCFF",
".X c #FDFFFE",
"XX c #FDFFFF",
"oX c #FEFEFE",
"OX c #FFFEFF",
"+X c #FEFFFF",
"@X c white",
"#X c #FEFEFF",
"$X c #FCFDFE",
"%X c #FEFEFD",
/* pixels */
"@X@X@X@X@X@X@X@X@X@X@XE.@X@X@X@X@X@X~.@XE.@X@X@X@X/./.@X@X@X@X@X@X@X@X@X@X@X@X@X@X",
"@X@X@X@X@X@X@X@X@X@X@X@XE.@X@X@X@X~.@X~.E.E.@X@X@X@X@X@X@X@X@X@X@X@X@X@X@X@X@X@X@X",
"@X@X@X@X@X@X@X@X@X@X@XE.@X/././.U.@X@X/.E.E.E.E.U.@X@X@X@X@X@X@X@X@X@X@X@X@X@X@X@X",
"@X@X@X@X@X@X@X@X@X@X@X@XE.@X@X/.U.@XE.I.D.E.E.E.@X@X~.@X@X@X@X@X@X@X@X@X@X@X@X@X@X",
"@X@X@X@X@X@X@X@X@X@X@XU.E.@X@X/./.@X@XK./.I.@X~.~.I.~.@X@X@X@X@X@X@X@X@X@X@X@X@X@X",
"@X@X@X@X@X@X@X@X@X@X@X@XI.@X@X~.~.~.@X)./.@XU.@X@X@X@X@X@X@X@X@X@X@X@X@X@X@X@X@X@X",
"@X@X@X@X@X@X@X@X@X@X@XI.@X@X@XF.~.@X@X@XK./././.@X@X~.@X@X@X@X@X@X@X@X@X@X@X@X@X@X",
"@X@X@X@X@X@X@X@X@X@X@X@X@X@XI.~.E.K.H.A.A.V.H.A.U.@XE.@X@X@X@X@X@X@X@X@X@X@X@X@X@X",
"@X@X@X@X@X@X@X@X@X@X@XE.F.U.U.A.A.Z F S F D B S.A.I.@X@X@X@X@X@X@X@X@X@X@X@X@X@X@X",
"@X@X@X@X@X@X@X@X@X@X@X~.@XD.S.B.V O.O.u.i.} -.A V.K.~.@X@X@X@X@X@X@X@X@X@X@X@X@X@X",
"@X@X~.@X@X@X@X@X@X@X@X@XE.K.S.C [ X.4.7.9.O.&.2.L C.K.@X~.@X@XI.@X@X@X@X@X@X@X@X@X",
"@X@X~.@X@X/.@X@X@X@X@X~.U.H.Z [ 6.+.6.( 4.{ :. .-.L H.U.@X@X@X@X@XE.I.@X@X@X@X@X@X",
"@X@X@X@X@X@X@X@X@X@X@X@X/.P =.r.%.#.@.6...t. .>.&.;.P V.@X@XE.U.I.@X@X@X@X@X@X@X@X",
"@X@X@X@X@X@X@X@X@X@X/.H.C.f ] q.$.%.@./ d.o.o.&.>.*.A V.A.E.@X@X@X@XE.@X@X@X@X@X@X",
"@X@X@X@X@X@X~.@X@X@X/.V.A O.e.r.$.$.( r.) u.o.:.:.k W L K.U.E.@X@X~.@X~.~.@X@X@X@X",
"/.@X@X@X@X@X@X@X@X@XK.Z =.X.4.) q.q.3.) a...:.:.:.1.l L I E.E.E./.@XI.@X@XE./.@X@X",
"@X@X@X@X~.@X~.@X@X/.H.L ,.{ X.8.) a...a.|  .<.:.:.1.*.L I K.!.E.@XI.@X~.@X/.@X@X@X",
"/.@X/.@X@X~.@X~.@X@XS.l o.u.[ ..t.o. .o. . .` :.*.l b W L S.E.E.@X/.@X@X@X@X/.E.@X",
"@X/./.@X~.@X~.E./.H.I =.t.7.7.w O.o.&.>.' >.:.z l l l b L Y A.E.E.~.@X@X@X@X@X@X@X",
"@X@X/.@X@XE.@XE.K.S.Z } ^ %.@.8.w k k h h g g <.{ -.b l W J V.D.@X@X@X@X@X@X@X@X@X",
"@X@X@X@XE.@XE.U.V.M.F ] q.$.6...>.:.:.....X...) ..,.*.l f Q V./.D.@X@X@X@X@XE.@X@X",
"@X@X@X~.~.@XD.A.S.L =.8.#.~ q...y.:. .0.6.6.6.e.4.t.x >.l A J K.E.@X@X@X@XE.@X@X@X",
"U.@X@XE.~.@XU.S.K ;.{ 6.$.$./ { 1.` s.0.3.7.q.e.0.g &.g *.b I R K.~.~./.@XE.E.@X@X",
"E.@X@X@X~.@XA.N.L -.p.r.$.$.6. .y.<.| ) q.) 8.) w  .k >.D l L H.@X@X~.@X@X@XE.E.@X",
"@X@X@X@XI.@XU.N.A 2.' { [ 8.d. . .` |  . .a.| c { z :.h *.l Q C.K.@X~.@X/.E.E.@XE.",
"E.@X@X@X@XE.U.P =.{ o.{ h O.w  .:.`  .:.:.:. .,.*.:.&.*.l b v V.K.I.~./.@X@X@XE.E.",
"@XE.E.E.E.E.D.Q } u...o.' k 1.k :.g <.:.:.:.:.:.:.:.&.l -.l l P N.K.@X@X@X@X@X@X@X",
"@X@XE.U.I.@XA.V d.) 4...:.1.k *.n >.k 1.k :.<.:.1.&.1.-.l l l A Z /.@X@XU.~.@X@X@X",
"@X@X@XU.E.E.A.G 8.r.) 0.o.>.*.l k l l l >.g  .o.:.&.1.1.&.*.! f P U.U.@X@X~.@X@X/.",
"@X@X@X@XI.@XS.G 8.6.6.) a...,.' l l l l l o. .|  .:.1.:.&.*.k b P S.E.@X~.@X@XE.U.",
"@X@XE.E.U./.C.A } 8.6.q./ 0.| o.>.' >.{ { p ....| <.:.:.k 1.&.b D P S.E.@X@XE.E.@X",
"E.E.@XE.A.V.M.Q w X.9.6.6.) 0. . .:.>.{ p.p.i.u.a. . .z b &.n b D Q N.!.@XE.@X@XE.",
"E.@X@XE.!.S.D V w G } c { d. . .:.:.k l l D l l D l l l >.b 1.l D A I U.@XE.E.@X@X",
"E.E.@X@XD.Z [ 9.8.w l *.g o.j :.:.:.:.:.l l l b l b l *.k &.b *.l n L U.@XE.E.@X@X",
"@X@X@X@XA.H 9.5.w.q g c l l k :.:.:.:.:.:.:.k b l *.*.l *.l 2.b l b L K.U.E.@XE.@X",
"@X@X@XI.A.V i.w.6.6.8.] o.:.:.&. . . .:.1.:.:.:.:.>.*.-.! *.k b b l L K.@X@X@XI.@X",
"@X@X@XK.H.Q w ] 8.$./ 0._ ,. ...| | |  .:.:.:.<. .:.:.>.{ l *.l l l Q A.@X@XI.@XE.",
"@X@X@XK.S.A D O.] q.3.) d.o.{ 8.q.e.0.|  .:.:. .:.` :.o.x *.b b -.l A K.@X@X/.@X@X",
"@X@XU.K.H.f l g ,.] d.d.] { f.q.$.$.e.e. .1.:.:.:.>.:.h >.k k l f l W S./.@X@X@XE.",
"@X@X/.G.I W D l k ,.o.>.o.{ ..r.7.q.X... .:.:.:.:.g l g l k b l l l A A.K.K.~.@XE.",
"E.E.U.V.I A l l z h k k z  . .o.o.|  . . .:.:.:.1.:.:.o.o.*.*.*.{ l L K K./.@XE.D.",
"E.E.U.V.J W h { *.>.*.>.1. .:.:.:.:.:.:.:.:.<.` ..o. . .y.*.*.>.>.l A P H./.@XE.!.",
"E.E.@XS.I } O.t...c *.*.&.:.:.:.:.:.>.l b l g ) q.d.p.u. .{ >.l l W A J V./.E.@XE.",
"E.@XU.V.B i.e./ 0.{ D l n *.:.:.:.k x l l l o.0.e.] O.{ >.x k k l ! W I V.A.@X@XD.",
"@X@XU.N.H 5.%.+./ o.l D b f l l l l &.*.*.-.*.<.o.>.*.*.l g l >.&.l v I V.K.I.I.@X",
"@X@XU.N.C 7.%.#.$...{ l b b b l b l b l b l l k k g g w G { ,.:.*.-.W L V.H.@X~.~.",
"~.@XU.V.Z ] e.$.$.7.7...g h h l l l k b b k :.:.:. ...) e.^ d.a.{ *.f P V./.~.@X~.",
"@X~.@XS.J *.O.0.6.@.@.8...{ >.*.,.>.:.&.1.:.:.:. .t. .) 0.0.4.o.o.*.Q I V././.@X@X",
"@X@XE./.G.J =...e.6.6.) |  .:.o.t.u.t.s. . ...t.a.o. .s.o. . .' l L L K K./.I.@X~.",
"E.E.~.@X/.V.J D c ] ] u.p.:.:. .o.X.] o. . .o.] o.' :.:. .>.x l W L I S.S.@X@X~.@X",
"U.U.@X~.@X@XH.Z A D l *.*.>.&.:.*.>.l x *.*.,.*.&.2.` >.l h D D Z J S.K.U.@X@X@X@X",
"/.U.U.@X~.@XU.S.K L Q l l &.1.>.&.l l A D D l l f ! D l W D A J Y V.A.U.E.@X~.@X@X",
"@X/.U././././.U.A.A.Z P D l l l Q Q E I K I I L W L L P P P E U U.K.@X@X@X@X@X@X@X",
"@X@XE.A././.@X@X@XA.A.N.Z Q D Z S U X $ o . . X U K V.V.V.V.H.K.U.@X~.@X@X@X@X@XE.",
"@X~.!.E.D.D.E.@X@XE.E.U.A.K Y T O O > + + , + + E.E.U.~././././.@XE.@X~.@X@X@X@X@X",
"@X@XE.!.@XE.E.@X@X@X@XE./.S.N.r t 2 2 & a < s , F.~.@X@X@X@X/.@X@XE.E.E./.@X@X/.@X",
"@X@XE.!.E.D.E.@X@X@X@X~.F./.E.t 1 6 6 - d : a , x.b.I.@X@X@X/./.U.@XE.@X@X@X@X/./.",
"@X@X@X@X!.@X@X/.@X~.@Xx.n.x.z.1 5 7 5 6 8 : d @ @ v.z.v.v.h./.K.U.E.@X@X@X@X@X/./.",
"@X@X@X@XE.@X@X@X~.v.h.n.v.z.N - 6 4 7 0 8 ; a < , c.z.l.v.v.v.v.@X@X~.@X@X@X@X@X@X",
"@X@X@XE.@X@X@XI.v.v.v.h.b.M = - 9 8 7 6 8 - a < + s k.b.h.v.v.v.v.@X@X@X@X@X@X@X@X",
"@X@X@X@XE.@X@Xv.h.v.v.h.v.j.m.m.1 2 ; 6 u < < , +   M x.v.v.v.h.v.v.I.@X@X@X@X@X@X",
"@X@X@X@X@X@X@Xh.v.v.v.v.l.z.k.y 3 N & t % < + + s j.k.v.v.v.h.v.v.h.@X@X@X@X@X@X@X",
"@X@X@XE.@X@X@X@Xv.h.v.h.v.l.z.r   > >   + , , @ + M k.l.v.v.h.v.v.@X~.@X@X@X@X@X@X",
"@X@X@X@X~./.I.@X/.@X@XD.@XD.~.@XF.E.E.E.~.~.F.F.E.D.!.E.@X@X@X~./.@X/.@X@X@X@X@X@X",
"@X@X@X@X@X@X@X@XU.~.@X@XI.E.@XF.@X@X@XF.~.@X@X@X~.E.E.E.@XI.E.@X@X@XI.@X@X@X@X@X@X",
"@X@X@X@X@XI.@X@X@X~.@X@XE.E.E.@X@XE.U.@X@X/./.@XU.E.E.@X@X@X@X@X@X@X@X@X@X@X@X@X@X"
};
